<?xml version="1.0" encoding="utf-8"?>
<!-- Generator: Adobe Illustrator 19.2.1, SVG Export Plug-In . SVG Version: 6.00 Build 0)  -->
<svg version="1.1" id="layer" xmlns="http://www.w3.org/2000/svg" xmlns:xlink="http://www.w3.org/1999/xlink" x="0px" y="0px"
	 viewBox="0 0 652 652" style="enable-background:new 0 0 652 652;" xml:space="preserve">
<style type="text/css">
	.st0{fill:#00264C;}
	.st1{fill:#80A3B7;}
</style>
<path class="st0" d="M105.6,282.8c0,0-24.7,5.2-29.7,23.9c-5.5,20.5,0,41-11.6,55.1c-13.7,16.6-43.7,18.3-43.7,18.3v-21.1
	c0,0,25.6,2.3,30.4-16.5c4.4-17.2,1.9-44.6,12.1-56.4c11.8-13.7,18.6-21.1,42.5-24V282.8z"/>
<path class="st0" d="M140.8,380.2h-23.2v-87.7c0,0,11.6-30.9,41.7-30.3c30.1,0.7,41,25.1,41.7,29.7v87.7h-24.6v-30.7h-24.6v-22.8
	H178v-29.6c0,0-3.8-13.1-18.8-12.5c-15,0.6-19.1,16.5-19.1,16.5v80.3"/>
<path class="st0" d="M277.5,302.7c-0.7,10.2-5.8,14-5.8,14h-34.5v-32.8h31.4C268.6,283.9,278.5,286.4,277.5,302.7 M298.4,294.2
	c-3-28.2-25.4-29-25.4-29h-59.1v114.4h24.3v-41.5h36.6C283.9,335.8,301.4,322.4,298.4,294.2"/>
<path class="st1" d="M604.8,333.5c0,16.3-13.1,29.5-29.3,29.5c-16.2,0-29.3-13.2-29.3-29.5s13.1-29.5,29.3-29.5
	C591.7,304,604.8,317.2,604.8,333.5 M525.2,333.5c0,16.3-13.1,29.5-29.3,29.5c-16.2,0-29.3-13.2-29.3-29.5S479.8,304,496,304
	C512.1,304,525.2,317.2,525.2,333.5 M446.3,333.5c0,16.3-13.1,29.5-29.3,29.5c-16.2,0-29.3-13.2-29.3-29.5s13.1-29.5,29.3-29.5
	C433.2,304,446.3,317.2,446.3,333.5 M620.4,330.1c-2-39.9-36.9-42.7-40-43.3s-26.6-2.8-43.7,25.6c-28.1-50.1-74.1-19.4-79.9,0.6
	c-4.1-12-17.8-26.2-37.2-28c-19.5-1.8-38.3,13.8-42,27.4c0-6.7-3.8-25.1-31.8-25.1S313,319.1,313,319.1h20.5
	c6.8-23.6,27.3-11.8,26,2.1c-1.4,13.9-50.6,59.7-50.6,59.7H377v-16.6h-27.8l1.7-2.9c0,0,10.2-13.7,20.2-25.6
	c2.7,26.8,24.6,44.4,41.7,46.2c11.9,1.3,38.3-4.7,44.1-28c6.5,17.1,29.7,28,39.3,28c9.6,0,31.2-4.1,40-27.4
	c8.2,16.4,27,28,42.4,27.4S622.5,369.9,620.4,330.1"/>
</svg>
