<?xml version="1.0" encoding="utf-8"?>
<!-- Generator: Adobe Illustrator 23.0.1, SVG Export Plug-In . SVG Version: 6.00 Build 0)  -->
<svg version="1.0" id="Layer_1" xmlns="http://www.w3.org/2000/svg" xmlns:xlink="http://www.w3.org/1999/xlink" x="0px" y="0px"
	 viewBox="0 0 595.28 841.89" enable-background="new 0 0 595.28 841.89" xml:space="preserve">
<g>
	<path fill="#B12126" d="M261.81,421.35c0-0.02,0-0.04,0-0.06l-0.01-0.16c0-0.69,0.01-1.36,0-2.02c0-0.23,0.07-0.33,0.31-0.39
		c1.01-0.26,2.02-0.56,3.03-0.83c0.19-0.05,0.27-0.13,0.28-0.33c0.04-0.5,0.07-1,0.15-1.49c0.03-0.23-0.05-0.32-0.24-0.41
		c-1.08-0.5-1.98-0.95-3.06-1.46l0,0l0.03-0.19c0.13-0.65,0.27-1.29,0.38-1.93c0.05-0.28,0.16-0.38,0.45-0.39
		c1.01-0.03,2.02-0.09,3.02-0.14c0.22-0.01,0.32-0.09,0.37-0.3c0.13-0.49,0.28-0.98,0.44-1.46c0.05-0.14,0.04-0.23-0.1-0.33
		c-0.84-0.62-1.66-1.25-2.51-1.86c-0.21-0.15-0.25-0.29-0.15-0.51c0.25-0.58,0.49-1.16,0.72-1.76c0.09-0.23,0.21-0.27,0.44-0.23
		c1.04,0.16,2.08,0.31,3.11,0.46c0.16,0.02,0.26-0.01,0.34-0.17c0.24-0.47,0.49-0.94,0.76-1.4c0.09-0.15,0.07-0.25-0.05-0.37
		c-0.67-0.74-1.33-1.49-2.01-2.23c-0.06-0.07-0.17-0.08-0.3-0.14c-0.04-0.21,0.04-0.42,0.22-0.64c0.37-0.45,0.67-0.95,0.98-1.44
		c0.12-0.19,0.23-0.2,0.42-0.13c1,0.36,2,0.71,2.99,1.06c0.14,0.05,0.25,0.08,0.37-0.07c0.34-0.43,0.7-0.85,1.04-1.28
		c0.05-0.06,0.08-0.2,0.04-0.26c-0.53-0.91-1.04-1.83-1.62-2.7c-0.15-0.22-0.19-0.4-0.17-0.56c0.14-0.07,0.25-0.1,0.32-0.17
		c0.41-0.4,0.82-0.8,1.22-1.21c0.15-0.16,0.27-0.18,0.46-0.06c0.9,0.55,1.8,1.07,2.71,1.61c0.13,0.08,0.22,0.13,0.37,0
		c0.41-0.36,0.82-0.7,1.25-1.03c0.14-0.11,0.15-0.21,0.09-0.36c-0.34-0.94-0.67-1.88-0.99-2.83c-0.08-0.23-0.09-0.49-0.13-0.73
		c0-0.02,0.02-0.05,0.04-0.1c0.05,0.09,0.1,0.16,0.14,0.24c0.63-0.41,1.25-0.81,1.87-1.22c0.1,0.09,0.18,0.16,0.27,0.23
		c0.76,0.68,1.52,1.36,2.27,2.06c0.18,0.16,0.3,0.17,0.5,0.05c0.41-0.25,0.83-0.48,1.26-0.68c0.2-0.1,0.25-0.22,0.22-0.43
		c-0.16-1.04-0.31-2.08-0.45-3.12c-0.01-0.1,0.06-0.29,0.14-0.32c0.7-0.31,1.42-0.6,2.13-0.9c0.7,0.94,1.38,1.84,2.05,2.75
		c0.12,0.16,0.22,0.22,0.43,0.15c0.47-0.16,0.95-0.3,1.43-0.43c0.2-0.05,0.27-0.14,0.28-0.36c0.04-1.03,0.11-2.06,0.16-3.09
		c0.01-0.23,0.1-0.35,0.33-0.39c0.63-0.12,1.26-0.24,1.89-0.38c0.21-0.05,0.31,0.01,0.4,0.2c0.43,0.93,0.89,1.86,1.32,2.79
		c0.1,0.21,0.2,0.3,0.46,0.26c0.47-0.08,0.95-0.12,1.43-0.14c0.21-0.01,0.3-0.09,0.35-0.29c0.29-1.18,0.45-1.8,0.75-2.97
		c0.03-0.12,0.07-0.24,0.1-0.36c0.02,0-0.02,0,0,0l0.21,0c0.12,0,0.22,0,0.32,0c0.56,0,1.12,0.02,1.68,0
		c0.26-0.01,0.35,0.1,0.4,0.34c0.24,0.98,0.5,1.96,0.73,2.94c0.06,0.26,0.18,0.36,0.44,0.38c0.47,0.03,0.93,0.08,1.4,0.14
		c0.2,0.03,0.31-0.03,0.4-0.23c0.43-0.93,0.88-1.86,1.33-2.79c0.05-0.1,0.1-0.19,0.15-0.29c0.84,0.17,1.64,0.32,2.46,0.49
		c0.06,1.16,0.13,2.28,0.18,3.4c0.01,0.21,0.06,0.32,0.29,0.38c0.47,0.11,0.94,0.26,1.4,0.42c0.21,0.07,0.32,0.04,0.45-0.14
		c0.62-0.85,1.26-1.68,1.88-2.53c0.12-0.16,0.22-0.2,0.4-0.12c0.61,0.26,1.22,0.51,1.84,0.75c0.2,0.08,0.24,0.19,0.2,0.4
		c-0.16,1.04-0.31,2.08-0.46,3.12c-0.03,0.19,0.02,0.3,0.2,0.38c0.42,0.21,0.84,0.42,1.24,0.67c0.24,0.15,0.39,0.14,0.6-0.06
		c0.81-0.76,1.64-1.5,2.49-2.26c0.62,0.42,1.22,0.84,1.83,1.24c0.19,0.12,0.22,0.23,0.14,0.45c-0.36,0.98-0.69,1.96-1.04,2.94
		c-0.08,0.22-0.04,0.34,0.14,0.48c0.39,0.3,0.77,0.61,1.13,0.94c0.16,0.15,0.28,0.13,0.45,0.03c0.9-0.54,1.81-1.07,2.71-1.61
		c0.17-0.1,0.28-0.1,0.42,0.04c0.47,0.48,0.94,0.96,1.43,1.43c0.14,0.13,0.13,0.23,0.04,0.39c-0.55,0.92-1.09,1.85-1.64,2.76
		c-0.09,0.14-0.09,0.24,0.02,0.37c0.34,0.38,0.66,0.78,0.97,1.18c0.13,0.17,0.25,0.21,0.46,0.13c0.98-0.36,1.98-0.7,2.96-1.06
		c0.2-0.07,0.31-0.04,0.42,0.14c0.33,0.52,0.67,1.05,1.04,1.55c0.17,0.23,0.16,0.38-0.04,0.6c-0.7,0.74-1.37,1.51-2.06,2.26
		c-0.14,0.15-0.17,0.26-0.06,0.45c0.25,0.43,0.49,0.87,0.71,1.32c0.09,0.19,0.2,0.24,0.4,0.2c0.94-0.15,1.87-0.28,2.81-0.41
		c0.58-0.08,0.58-0.07,0.8,0.46c0.24,0.59,0.48,1.18,0.72,1.77c-0.1,0.08-0.17,0.14-0.24,0.19c-0.84,0.63-1.68,1.26-2.52,1.89
		c-0.14,0.11-0.19,0.2-0.13,0.38c0.15,0.46,0.3,0.93,0.42,1.41c0.06,0.25,0.18,0.34,0.44,0.35c1.02,0.04,2.04,0.1,3.06,0.14
		c0.21,0.01,0.32,0.08,0.36,0.31c0.11,0.64,0.24,1.28,0.38,1.92c0.04,0.2-0.01,0.31-0.21,0.4c-0.95,0.44-1.89,0.9-2.84,1.35
		c-0.16,0.08-0.23,0.15-0.2,0.35c0.06,0.5,0.11,0.99,0.14,1.49c0.01,0.22,0.09,0.31,0.31,0.37c1.02,0.25,2.03,0.52,3.05,0.77
		c0.2,0.05,0.27,0.13,0.27,0.33c-0.01,0.65-0.01,1.31,0.01,1.96c0.01,0.25-0.09,0.35-0.33,0.41c-1.01,0.24-2.01,0.51-3.02,0.76
		c-0.19,0.05-0.27,0.13-0.28,0.33c-0.03,0.51-0.08,1.02-0.14,1.52c-0.02,0.19,0.04,0.27,0.2,0.35c0.96,0.45,1.91,0.91,2.87,1.36
		c0.17,0.08,0.22,0.17,0.19,0.35c-0.14,0.66-0.27,1.32-0.39,1.98c-0.04,0.21-0.12,0.27-0.34,0.28c-1.06,0.04-2.12,0.11-3.18,0.16
		c-0.17,0.01-0.24,0.07-0.29,0.23c-0.14,0.5-0.28,1-0.45,1.49c-0.06,0.19-0.02,0.29,0.14,0.4c0.69,0.5,1.38,1.02,2.06,1.54
		c0.23,0.17,0.57,0.32,0.63,0.54c0.06,0.22-0.16,0.53-0.26,0.79c-0.2,0.51-0.42,1.01-0.62,1.51c-1.18-0.17-2.31-0.32-3.43-0.49
		c-0.17-0.03-0.26,0-0.34,0.16c-0.24,0.46-0.48,0.92-0.74,1.37c-0.1,0.17-0.08,0.28,0.05,0.42c0.71,0.77,1.41,1.56,2.12,2.33
		c0.16,0.17,0.16,0.29,0.04,0.47c-0.37,0.54-0.74,1.08-1.09,1.63c-0.11,0.17-0.21,0.2-0.4,0.13c-0.99-0.36-1.98-0.7-2.96-1.05
		c-0.2-0.07-0.33-0.06-0.47,0.12c-0.3,0.39-0.61,0.77-0.94,1.13c-0.15,0.17-0.15,0.29-0.04,0.47c0.54,0.9,1.07,1.81,1.6,2.72
		c0.05,0.08,0.08,0.26,0.03,0.31c-0.54,0.58-1.1,1.14-1.65,1.7c-1.02-0.61-2-1.18-2.97-1.76c-0.16-0.1-0.27-0.11-0.42,0.03
		c-0.37,0.33-0.76,0.65-1.16,0.95c-0.17,0.13-0.21,0.25-0.13,0.46c0.36,0.98,0.69,1.96,1.05,2.94c0.09,0.23,0.04,0.35-0.15,0.47
		c-0.42,0.27-0.83,0.56-1.25,0.83c-0.59,0.38-0.59,0.38-1.11-0.09c-0.74-0.67-1.48-1.34-2.22-2.01c-0.5,0.27-0.96,0.55-1.45,0.77
		c-0.29,0.13-0.35,0.29-0.3,0.59c0.17,1.02,0.31,2.04,0.45,3.06c0.01,0.08-0.05,0.23-0.11,0.26c-0.72,0.31-1.44,0.61-2.16,0.91
		c-0.07-0.09-0.12-0.15-0.17-0.21c-0.63-0.84-1.26-1.68-1.88-2.53c-0.13-0.18-0.25-0.22-0.46-0.15c-0.46,0.16-0.93,0.3-1.4,0.42
		c-0.22,0.06-0.27,0.16-0.28,0.38c-0.05,1.06-0.11,2.12-0.17,3.18c-0.01,0.16-0.06,0.23-0.22,0.26c-0.68,0.13-1.36,0.26-2.04,0.41
		c-0.2,0.04-0.27-0.05-0.34-0.2c-0.45-0.96-0.92-1.91-1.37-2.87c-0.08-0.16-0.16-0.22-0.35-0.19c-0.48,0.07-0.97,0.13-1.46,0.14
		c-0.26,0.01-0.35,0.11-0.4,0.34c-0.24,0.98-0.49,1.96-0.75,2.93c-0.02,0.09-0.12,0.22-0.18,0.22c-0.82,0.01-1.65,0.01-2.48,0.01
		c-0.28-1.08-0.55-2.14-0.81-3.19c-0.05-0.21-0.13-0.3-0.36-0.31c-0.49-0.02-0.98-0.07-1.46-0.15c-0.22-0.03-0.31,0.04-0.39,0.22
		c-0.48,1.04-0.97,2.07-1.46,3.1c-0.04,0.09-0.09,0.17-0.13,0.26c0.04-0.3-0.15-0.32-0.36-0.36c-0.54-0.1-1.08-0.23-1.62-0.31
		c-0.31-0.05-0.39-0.19-0.4-0.48c-0.03-1-0.09-2-0.14-3c-0.01-0.17-0.02-0.31-0.24-0.36c-0.51-0.13-1.02-0.29-1.52-0.45
		c-0.15-0.05-0.24-0.05-0.34,0.09c-0.62,0.85-1.26,1.68-1.88,2.53c-0.14,0.19-0.25,0.23-0.45,0.15c-0.6-0.25-1.2-0.5-1.81-0.74
		c-0.22-0.08-0.25-0.2-0.22-0.42c0.15-1.05,0.28-2.1,0.41-3.16c0.01-0.09-0.06-0.24-0.13-0.28c-0.48-0.28-0.96-0.54-1.45-0.79
		c-0.08-0.04-0.24-0.03-0.31,0.03c-0.77,0.67-1.53,1.35-2.28,2.04c-0.06,0.06-0.07,0.17-0.12,0.28c-0.28,0.01-0.28,0.01-0.62-0.22
		c-0.47-0.32-0.94-0.65-1.42-0.96c-0.22-0.14-0.25-0.26-0.16-0.5c0.36-0.99,0.71-1.98,1.04-2.97c0.03-0.1,0-0.27-0.07-0.33
		c-0.42-0.37-0.85-0.73-1.29-1.08c-0.06-0.04-0.18-0.07-0.23-0.04c-0.92,0.53-1.84,1.05-2.72,1.64c-0.23,0.15-0.4,0.17-0.54,0.17
		c-0.08-0.15-0.11-0.25-0.17-0.31c-0.48-0.47-0.97-0.93-1.46-1.39c0.11-0.16,0.16-0.25,0.21-0.34c0.53-0.9,1.06-1.79,1.58-2.69
		c0.05-0.09,0.06-0.26,0-0.34c-0.33-0.44-0.69-0.86-1.05-1.28c-0.06-0.07-0.22-0.12-0.3-0.09c-0.96,0.33-1.92,0.68-2.88,1
		c-0.26,0.09-0.44,0.14-0.43,0.14l-0.13-0.17l-0.01-0.02c-0.41-0.64-0.82-1.26-1.22-1.88c0.09-0.11,0.17-0.2,0.25-0.29
		c0.68-0.76,1.36-1.52,2.05-2.27c0.13-0.14,0.16-0.25,0.05-0.42c-0.26-0.45-0.51-0.91-0.74-1.37c-0.08-0.16-0.16-0.19-0.33-0.17
		c-1.03,0.16-2.06,0.29-3.08,0.45c-0.27,0.04-0.39-0.04-0.48-0.27c-0.24-0.59-0.47-1.17-0.72-1.75c-0.09-0.2-0.04-0.3,0.13-0.43
		c0.84-0.62,1.66-1.25,2.5-1.86c0.19-0.14,0.23-0.26,0.15-0.48c-0.15-0.44-0.28-0.89-0.4-1.35c-0.06-0.22-0.15-0.31-0.39-0.32
		c-1.03-0.04-2.06-0.11-3.08-0.16c-0.18-0.01-0.31-0.07-0.35-0.22c-0.16-0.75-0.31-1.51-0.46-2.27c1.05-0.5,2.07-0.99,3.09-1.48
		c0.15-0.07,0.25-0.14,0.22-0.34c-0.07-0.52-0.13-1.03-0.16-1.55c-0.01-0.21-0.1-0.28-0.28-0.32c-0.8-0.2-1.6-0.41-2.4-0.61
		C262.18,421.44,262.36,421.48,261.81,421.35z M270.59,420.48c0.05,0.74,0.09,1.44,0.15,2.14c0.24,2.71,0.9,5.32,1.93,7.84
		c0.07,0.18,0.16,0.24,0.36,0.24c10.04-0.01,20.09-0.01,30.13-0.02c3.44,0,6.87,0.01,10.31,0.01c3.02,0,6.04,0,9.05,0.01
		c0.24,0,0.35-0.07,0.44-0.29c1.18-2.89,1.83-5.89,2-9.01c0.02-0.3,0-0.6,0-0.92C306.85,420.48,288.76,420.48,270.59,420.48z
		 M321.74,419.76c1.1,0,2.16,0,3.27,0c-0.03-0.59-0.06-1.16-0.08-1.73c0-0.22-0.09-0.27-0.29-0.27c-0.88,0.01-1.77,0-2.65,0
		c-0.08,0-0.15,0.02-0.24,0.03C321.74,418.45,321.74,419.09,321.74,419.76z M279.03,436.56c0.86,0,1.65,0,2.49,0
		c0-0.78,0.01-1.55-0.01-2.31c0-0.06-0.14-0.17-0.21-0.17c-0.68-0.01-1.37-0.01-2.05,0c-0.07,0-0.21,0.09-0.21,0.15
		C279.02,435,279.03,435.77,279.03,436.56z M287.11,435.34c0,0.34,0.01,0.67,0,1.01c0,0.17,0.04,0.26,0.24,0.26
		c0.67-0.01,1.35-0.01,2.02,0c0.16,0,0.24-0.05,0.24-0.22c-0.01-0.69-0.01-1.39,0-2.08c0-0.18-0.07-0.23-0.24-0.23
		c-0.67,0-1.35,0.01-2.02,0c-0.19,0-0.24,0.08-0.24,0.26C287.11,434.67,287.11,435,287.11,435.34z M324.56,415.09
		c-0.97,0-1.88,0-2.81,0c0,0.67,0,1.31,0,1.97c1.03,0,2.04,0,3.1,0C324.75,416.38,324.65,415.74,324.56,415.09z M297.51,392.85
		c0,0.89,0,1.77,0,2.65c0.66,0,1.29,0,1.94,0c0-0.89,0-1.75,0-2.65C298.79,392.85,298.17,392.85,297.51,392.85z M297.94,444.87
		c0,0.83,0,1.61,0,2.42c0.74-0.03,1.46-0.06,2.19-0.1c0-0.74,0.01-1.43-0.01-2.12c0-0.07-0.12-0.2-0.18-0.2
		C299.28,444.86,298.62,444.87,297.94,444.87z M294.82,392.97c0,0.88,0,1.7,0,2.53c0.67,0,1.3,0,1.93,0c0-0.9,0-1.77,0-2.67
		C296.09,392.87,295.45,392.92,294.82,392.97z M280.25,433.39c0.34,0,0.67-0.01,1.01,0c0.17,0,0.27-0.04,0.26-0.23
		c-0.01-0.52,0.01-1.04-0.01-1.56c0-0.08-0.13-0.21-0.21-0.21c-0.68-0.02-1.37-0.01-2.05-0.01c-0.17,0-0.23,0.07-0.23,0.24
		c0.01,0.51,0.01,1.02,0,1.53c0,0.18,0.06,0.26,0.25,0.25C279.59,433.38,279.92,433.39,280.25,433.39z M288.35,433.39
		c0.34,0,0.67-0.01,1.01,0c0.16,0,0.24-0.04,0.24-0.22c-0.01-0.52-0.01-1.04,0-1.56c0-0.17-0.07-0.23-0.24-0.23
		c-0.67,0.01-1.35,0-2.02,0c-0.16,0-0.24,0.05-0.24,0.23c0.01,0.52,0.01,1.04,0,1.56c0,0.17,0.07,0.23,0.24,0.23
		C287.68,433.38,288.01,433.39,288.35,433.39z M321.74,414.36c0.89,0,1.75,0,2.68,0c-0.17-0.65-0.32-1.27-0.49-1.88
		c-0.01-0.05-0.1-0.1-0.16-0.1c-0.67-0.01-1.34,0-2.02,0C321.74,413.05,321.74,413.69,321.74,414.36z M302.17,395.51
		c0-0.62,0-1.21,0-1.8c0-0.54,0-0.55-0.53-0.62c-0.48-0.07-0.96-0.11-1.43-0.17c0,0.9,0,1.74,0,2.59
		C300.86,395.51,301.48,395.51,302.17,395.51z M322.56,431.38c-0.76,0-1.43,0-2.1,0c-0.78,0-0.78,0-0.78,0.78c0,0.4,0,0.8,0,1.25
		c0.61,0,1.17,0,1.73,0c0.05,0,0.13-0.06,0.16-0.11C321.89,432.68,322.2,432.07,322.56,431.38z M292.1,395.5c0.69,0,1.32,0,1.97,0
		c0-0.81,0-1.6,0-2.44c-0.62,0.11-1.21,0.21-1.79,0.32c-0.07,0.01-0.17,0.13-0.17,0.2C292.09,394.21,292.1,394.84,292.1,395.5z
		 M297.93,433.39c0.7,0,1.36,0.01,2.02-0.01c0.06,0,0.17-0.13,0.17-0.2c0.02-0.52,0-1.04,0.01-1.56c0-0.2-0.08-0.24-0.25-0.24
		c-0.44,0.01-0.88,0-1.31,0c-0.21,0-0.42,0-0.64,0C297.93,432.07,297.93,432.71,297.93,433.39z M297.93,438.78
		c0.7,0,1.36,0.01,2.02-0.01c0.06,0,0.17-0.13,0.18-0.2c0.02-0.32,0.01-0.63,0.01-0.95c-0.01-0.27,0.07-0.65-0.07-0.79
		c-0.15-0.14-0.52-0.06-0.79-0.07c-0.44-0.01-0.89,0-1.34,0C297.93,437.46,297.93,438.1,297.93,438.78z M297.93,436.08
		c0.7,0,1.37,0,2.04-0.01c0.05,0,0.15-0.11,0.15-0.17c0.01-0.55,0.01-1.1,0-1.65c0-0.06-0.09-0.17-0.14-0.17
		c-0.68-0.01-1.36-0.01-2.05-0.01C297.93,434.76,297.93,435.4,297.93,436.08z M297.93,441.48c0.7,0,1.37,0,2.04-0.01
		c0.05,0,0.15-0.1,0.15-0.16c0.01-0.55,0.01-1.1,0-1.65c0-0.06-0.09-0.17-0.14-0.18c-0.68-0.01-1.36-0.01-2.05-0.01
		C297.93,440.15,297.93,440.79,297.93,441.48z M297.93,444.18c0.69,0,1.35,0,2.01,0c0.18,0,0.19-0.1,0.19-0.24c0-0.39,0-0.77,0-1.16
		c0-0.61,0-0.61-0.61-0.61c-0.53,0-1.05,0-1.59,0C297.93,442.85,297.93,443.49,297.93,444.18z M300.82,447.13
		c0.7-0.11,1.36-0.21,2.01-0.3c0-0.61,0-1.16,0-1.72c0-0.16-0.04-0.24-0.22-0.24c-0.53,0.01-1.06,0-1.58,0.01
		c-0.07,0-0.19,0.12-0.2,0.19C300.81,445.73,300.82,446.4,300.82,447.13z M310.93,442.17c-0.67,0-1.26-0.01-1.86,0.01
		c-0.06,0-0.16,0.16-0.16,0.25c-0.02,0.49,0,0.98-0.01,1.47c-0.01,0.24,0.09,0.31,0.3,0.28c0.27-0.03,0.5,0.01,0.63,0.31
		c0.4-0.21,0.77-0.41,1.1-0.58C310.93,443.31,310.93,442.77,310.93,442.17z M300.82,438.78c0.64,0,1.23,0.01,1.82-0.01
		c0.06,0,0.18-0.13,0.18-0.2c0.02-0.53,0.01-1.06,0.01-1.59c0-0.16-0.05-0.22-0.21-0.22c-0.53,0-1.06,0-1.59,0.01
		c-0.07,0-0.2,0.1-0.2,0.16C300.81,437.53,300.82,438.13,300.82,438.78z M302.82,439.47c-0.64,0-1.24-0.01-1.84,0.01
		c-0.06,0-0.16,0.12-0.16,0.19c-0.01,0.54-0.01,1.08,0,1.62c0,0.06,0.13,0.18,0.2,0.18c0.53,0.02,1.06,0.02,1.59,0
		c0.07,0,0.2-0.11,0.2-0.17C302.83,440.71,302.82,440.12,302.82,439.47z M300.82,444.18c0.64,0,1.24,0,1.84-0.01
		c0.06,0,0.16-0.1,0.16-0.16c0.01-0.6,0.01-1.2,0.01-1.84c-0.64,0-1.25,0-1.85,0.01c-0.05,0-0.14,0.09-0.14,0.15
		C300.82,442.93,300.82,443.54,300.82,444.18z M308.21,435.08c0-0.25-0.01-0.51,0-0.76c0.01-0.16-0.04-0.24-0.22-0.24
		c-0.52,0.01-1.04,0.01-1.56,0c-0.17,0-0.23,0.07-0.23,0.23c0.01,0.52,0,1.04,0,1.56c0,0.15,0.04,0.23,0.21,0.22
		c0.53-0.01,1.06-0.01,1.59,0c0.16,0,0.22-0.06,0.21-0.22C308.21,435.61,308.21,435.34,308.21,435.08z M308.91,436.06
		c0.69,0,1.33,0,1.98,0c0-0.66,0-1.3,0-1.98c-0.62,0-1.23,0-1.84,0.01c-0.05,0-0.14,0.08-0.14,0.12
		C308.9,434.82,308.91,435.44,308.91,436.06z M313.58,434.08c-0.62,0-1.23,0-1.84,0.01c-0.05,0-0.13,0.08-0.14,0.12
		c-0.01,0.62-0.01,1.24-0.01,1.85c0.69,0,1.33,0,1.98,0C313.58,435.39,313.58,434.75,313.58,434.08z M314.29,436.06
		c0.69,0,1.33,0,1.98,0c0-0.66,0-1.3,0-1.98c-0.62,0-1.23,0-1.83,0.01c-0.05,0-0.14,0.1-0.14,0.15
		C314.29,434.84,314.29,435.45,314.29,436.06z M313.57,433.37c0-0.68,0-1.32,0-1.99c-0.61,0-1.2,0-1.79,0.01
		c-0.06,0-0.17,0.09-0.17,0.15c-0.01,0.61-0.01,1.22-0.01,1.84C312.28,433.37,312.91,433.37,313.57,433.37z M303.51,438.78
		c0.65,0,1.25,0.01,1.85-0.01c0.05,0,0.15-0.14,0.15-0.22c0.01-0.51,0-1.02,0.01-1.53c0.01-0.22-0.09-0.26-0.27-0.25
		c-0.4,0.01-0.79,0-1.19,0c-0.62,0.01-0.54-0.09-0.54,0.56C303.51,437.81,303.51,438.28,303.51,438.78z M306.21,438.76
		c0.69,0,1.34,0,2,0c0-0.62,0.01-1.21-0.01-1.8c0-0.06-0.11-0.17-0.17-0.18c-0.55-0.01-1.1-0.01-1.65,0c-0.06,0-0.16,0.1-0.16,0.16
		C306.2,437.54,306.21,438.14,306.21,438.76z M310.88,438.78c0-0.69,0-1.33,0-2.01c-0.62,0-1.22,0-1.82,0.01
		c-0.06,0-0.15,0.11-0.16,0.17c-0.01,0.56-0.01,1.12,0,1.68c0,0.05,0.11,0.15,0.17,0.15C309.67,438.79,310.26,438.78,310.88,438.78z
		 M316.24,433.37c0.02-0.04,0.04-0.05,0.04-0.07c0.01-0.43,0.01-0.85,0.01-1.28c0-0.64,0-0.64-0.64-0.64c-0.44,0-0.89,0-1.33,0
		c0,0.7,0,1.34,0,1.99C314.98,433.37,315.62,433.37,316.24,433.37z M314.31,438.76c0.68,0,1.32,0,1.96,0c0-0.67,0-1.31,0-1.96
		c-0.66,0-1.3,0-1.96,0C314.31,437.46,314.31,438.1,314.31,438.76z M302.82,431.38c-0.65,0-1.24-0.01-1.84,0.01
		c-0.06,0-0.16,0.13-0.16,0.19c-0.01,0.53-0.01,1.06-0.01,1.59c0,0.15,0.05,0.22,0.21,0.22c0.53-0.01,1.06,0,1.59-0.01
		c0.07,0,0.2-0.12,0.2-0.18C302.83,432.61,302.82,432.02,302.82,431.38z M303.51,433.39c0.65,0,1.25,0.01,1.84-0.01
		c0.05,0,0.15-0.13,0.15-0.19c0.01-0.53,0-1.06,0.01-1.59c0-0.16-0.05-0.22-0.21-0.22c-0.53,0-1.06,0-1.59,0.01
		c-0.07,0-0.2,0.1-0.2,0.15C303.51,432.14,303.51,432.74,303.51,433.39z M305.5,439.47c-0.62,0-1.22-0.01-1.82,0.01
		c-0.06,0-0.16,0.12-0.16,0.19c-0.01,0.54-0.01,1.08,0,1.62c0,0.06,0.09,0.18,0.14,0.18c0.61,0.01,1.21,0.01,1.84,0.01
		C305.5,440.8,305.5,440.17,305.5,439.47z M306.21,441.45c0.69,0,1.34,0,1.98,0c0-0.67,0-1.3,0-1.98c-0.63,0-1.23,0-1.84,0.01
		c-0.05,0-0.14,0.1-0.14,0.15C306.2,440.23,306.21,440.83,306.21,441.45z M310.89,439.47c-0.63,0-1.22,0-1.82,0.01
		c-0.06,0-0.15,0.11-0.16,0.17c-0.01,0.55-0.01,1.1,0,1.65c0,0.06,0.09,0.17,0.14,0.18c0.61,0.01,1.21,0.01,1.84,0.01
		C310.89,440.8,310.89,440.16,310.89,439.47z M313.6,438.77c0-0.64,0.01-1.25-0.01-1.85c0-0.05-0.13-0.14-0.21-0.14
		c-0.34-0.02-0.67-0.01-1.01-0.01c-0.78,0-0.78,0-0.78,0.78c0,0.4,0,0.81,0,1.22C312.28,438.77,312.91,438.77,313.6,438.77z
		 M308.21,431.38c-0.64,0-1.23-0.01-1.81,0.01c-0.07,0-0.18,0.13-0.18,0.2c-0.02,0.53-0.02,1.06,0,1.59c0,0.07,0.11,0.2,0.18,0.2
		c0.55,0.02,1.1,0.01,1.65,0c0.06,0,0.16-0.1,0.16-0.15C308.21,432.63,308.21,432.03,308.21,431.38z M310.88,433.39
		c0-0.69,0-1.34,0-2.01c-0.62,0-1.22-0.01-1.82,0.01c-0.05,0-0.15,0.13-0.15,0.2c-0.01,0.53-0.01,1.06,0,1.59
		c0,0.07,0.11,0.2,0.18,0.2C309.67,433.39,310.26,433.39,310.88,433.39z M305.5,442.17c-0.63,0-1.23-0.01-1.83,0.01
		c-0.06,0-0.15,0.13-0.16,0.2c-0.01,0.53-0.01,1.06,0,1.59c0,0.07,0.09,0.2,0.15,0.2c0.61,0.01,1.21,0.01,1.84,0.01
		C305.5,443.5,305.5,442.86,305.5,442.17z M308.19,444.18c0-0.69,0-1.33,0-2.01c-0.62,0-1.22,0-1.82,0.01
		c-0.05,0-0.15,0.11-0.15,0.17c-0.01,0.55-0.01,1.1,0,1.65c0,0.06,0.11,0.17,0.17,0.17C306.98,444.18,307.57,444.18,308.19,444.18z
		 M302.82,435.08c0-0.25-0.01-0.51,0-0.76c0.01-0.16-0.04-0.24-0.22-0.24c-0.52,0.01-1.04,0.01-1.56,0c-0.17,0-0.24,0.06-0.23,0.23
		c0.01,0.52,0,1.04,0,1.56c0,0.15,0.04,0.23,0.21,0.22c0.53-0.01,1.06-0.01,1.59,0c0.16,0,0.22-0.06,0.22-0.21
		C302.82,435.61,302.82,435.34,302.82,435.08z M304.53,436.09c0.23,0,0.47-0.01,0.7,0c0.2,0.01,0.29-0.04,0.29-0.27
		c-0.01-0.5-0.01-1,0-1.5c0-0.18-0.05-0.26-0.24-0.25c-0.51,0.01-1.02,0.01-1.53,0c-0.16,0-0.25,0.04-0.24,0.22
		c0.01,0.52,0.01,1.04,0,1.56c0,0.17,0.05,0.24,0.23,0.23C304,436.08,304.27,436.09,304.53,436.09z M313.58,439.47
		c-0.63,0-1.22-0.01-1.82,0.01c-0.06,0-0.15,0.14-0.16,0.22c-0.02,0.29-0.01,0.59-0.01,0.89c0,0.29,0,0.58,0,0.87
		c0.7,0,1.33,0,1.99,0C313.58,440.8,313.58,440.16,313.58,439.47z M288.67,406.26c0-0.67,0-1.32,0-1.97c-0.66,0-1.3,0-1.94,0
		c0,0.67,0,1.31,0,1.97C287.4,406.26,288.03,406.26,288.67,406.26z M292.11,406.26c0.66,0,1.3,0,1.94,0c0-0.67,0-1.32,0-1.96
		c-0.66,0-1.3,0-1.94,0C292.11,404.97,292.11,405.61,292.11,406.26z M299.45,406.27c0-0.67,0-1.31,0-1.97c-0.66,0-1.29,0-1.94,0
		c0,0.66,0,1.31,0,1.97C298.16,406.27,298.8,406.27,299.45,406.27z M300.2,404.29c0,0.67,0,1.32,0,1.97c0.66,0,1.3,0,1.94,0
		c0-0.67,0-1.31,0-1.97C301.49,404.29,300.86,404.29,300.2,404.29z M302.88,406.26c0.67,0,1.31,0,1.96,0c0-0.67,0-1.31,0-1.95
		c-0.66,0-1.31,0-1.96,0C302.88,404.96,302.88,405.59,302.88,406.26z M307.53,404.3c-0.66,0-1.31,0-1.95,0c0,0.67,0,1.31,0,1.95
		c0.66,0,1.3,0,1.95,0C307.53,405.59,307.53,404.95,307.53,404.3z M310.23,404.3c-0.67,0-1.31,0-1.95,0c0,0.67,0,1.31,0,1.97
		c0.66,0,1.3,0,1.95,0C310.23,405.6,310.23,404.96,310.23,404.3z M310.97,404.29c0,0.67,0,1.31,0,1.97c0.66,0,1.29,0,1.95,0
		c0-0.67,0-1.31,0-1.97C312.27,404.29,311.64,404.29,310.97,404.29z M313.67,404.29c0,0.67,0,1.32,0,1.97c0.66,0,1.3,0,1.94,0
		c0-0.67,0-1.31,0-1.97C314.96,404.29,314.33,404.29,313.67,404.29z M316.35,406.26c0.67,0,1.32,0,1.96,0c0-0.67,0-1.31,0-1.95
		c-0.67,0-1.31,0-1.96,0C316.35,404.96,316.35,405.6,316.35,406.26z M278.63,406.99c0,0.63-0.01,1.23,0.01,1.83
		c0,0.06,0.13,0.16,0.21,0.17c0.29,0.02,0.59,0.01,0.88,0.01c0.29,0,0.58,0,0.86,0c0-0.7,0-1.35,0-2
		C279.94,406.99,279.31,406.99,278.63,406.99z M281.32,406.99c0,0.63-0.01,1.23,0.01,1.83c0,0.06,0.13,0.16,0.21,0.17
		c0.29,0.02,0.59,0.01,0.88,0.01c0.29,0,0.58,0,0.86,0c0-0.7,0-1.35,0-2C282.63,406.99,282,406.99,281.32,406.99z M285.98,408.99
		c0-0.7,0-1.35,0-1.99c-0.66,0-1.3,0-1.96,0c0,0.62,0,1.22,0.01,1.82c0,0.06,0.1,0.17,0.15,0.17
		C284.77,408.99,285.37,408.99,285.98,408.99z M288.67,408.99c0-0.7,0-1.35,0-1.99c-0.66,0-1.3,0-1.96,0c0,0.62,0,1.22,0.01,1.82
		c0,0.06,0.1,0.17,0.15,0.17C287.46,408.99,288.06,408.99,288.67,408.99z M299.45,408.97c0-0.68,0-1.33,0-1.98
		c-0.66,0-1.29,0-1.94,0c0,0.67,0,1.31,0,1.98C298.16,408.97,298.79,408.97,299.45,408.97z M302.14,408.97c0-0.68,0-1.32,0-1.98
		c-0.66,0-1.29,0-1.94,0c0,0.67,0,1.31,0,1.98C300.85,408.97,301.48,408.97,302.14,408.97z M302.89,406.99c0,0.67,0,1.32,0,1.98
		c0.66,0,1.29,0,1.95,0c0-0.67,0-1.31,0-1.98C304.19,406.99,303.55,406.99,302.89,406.99z M310.24,407c-0.69,0-1.32,0-1.97,0
		c0,0.67,0,1.31,0,1.99c0.62,0,1.21,0,1.81-0.01c0.05,0,0.15-0.09,0.15-0.14C310.25,408.23,310.24,407.62,310.24,407z
		 M310.96,408.97c0.67,0,1.31,0,1.96,0c0-0.67,0-1.31,0-1.97c-0.66,0-1.31,0-1.96,0C310.96,407.66,310.96,408.3,310.96,408.97z
		 M315.61,407c-0.66,0-1.31,0-1.95,0c0,0.67,0,1.32,0,1.97c0.66,0,1.3,0,1.95,0C315.61,408.3,315.61,407.66,315.61,407z M318.31,407
		c-0.66,0-1.3,0-1.95,0c0,0.67,0,1.31,0,1.97c0.66,0,1.29,0,1.95,0C318.31,408.3,318.31,407.66,318.31,407z M319.05,406.99
		c0,0.68,0,1.32,0,2c0.53,0,1.03,0,1.54,0c0.43,0,0.43,0,0.44-0.42c0-0.29,0-0.57,0-0.86c0-0.24,0-0.48,0-0.73
		C320.34,406.99,319.71,406.99,319.05,406.99z M280.59,411.68c0-0.7,0-1.35,0-1.99c-0.66,0-1.3,0-1.96,0c0,0.62,0,1.22,0.01,1.82
		c0,0.06,0.1,0.16,0.15,0.17C279.38,411.69,279.98,411.68,280.59,411.68z M281.34,411.66c0.66,0,1.3,0,1.95,0c0-0.67,0-1.32,0-1.96
		c-0.66,0-1.31,0-1.95,0C281.34,410.36,281.34,411,281.34,411.66z M284.03,411.66c0.66,0,1.3,0,1.95,0c0-0.67,0-1.32,0-1.97
		c-0.66,0-1.29,0-1.95,0C284.03,410.35,284.03,411,284.03,411.66z M288.67,411.68c0-0.7,0-1.35,0-1.99c-0.66,0-1.3,0-1.96,0
		c0,0.62,0,1.22,0.01,1.82c0,0.06,0.1,0.17,0.15,0.17C287.46,411.69,288.06,411.68,288.67,411.68z M297.5,411.66
		c0.67,0,1.31,0,1.96,0c0-0.67,0-1.31,0-1.97c-0.66,0-1.3,0-1.96,0C297.5,410.36,297.5,411,297.5,411.66z M300.2,411.66
		c0.66,0,1.3,0,1.94,0c0-0.67,0-1.32,0-1.97c-0.66,0-1.3,0-1.94,0C300.2,410.36,300.2,411,300.2,411.66z M304.83,411.67
		c0-0.67,0-1.32,0-1.97c-0.66,0-1.3,0-1.94,0c0,0.67,0,1.31,0,1.97C303.55,411.67,304.18,411.67,304.83,411.67z M307.53,411.67
		c0-0.68,0-1.32,0-1.98c-0.66,0-1.29,0-1.95,0c0,0.66,0,1.31,0,1.98C306.23,411.67,306.87,411.67,307.53,411.67z M310.22,411.67
		c0-0.68,0-1.32,0-1.98c-0.66,0-1.29,0-1.95,0c0,0.66,0,1.31,0,1.98C308.93,411.67,309.56,411.67,310.22,411.67z M310.95,411.69
		c0.51,0,0.98,0,1.46,0c0.62-0.01,0.52,0.08,0.53-0.54c0.01-0.48,0-0.97,0-1.46c-0.69,0-1.32,0-1.99,0c0,0.57,0,1.11,0,1.66
		C310.95,411.45,310.95,411.55,310.95,411.69z M313.66,411.69c0.47,0,0.93,0,1.38,0c0.59,0,0.59,0,0.59-0.6c0-0.46,0-0.93,0-1.4
		c-0.69,0-1.32,0-1.97,0C313.66,410.35,313.66,411,313.66,411.69z M316.36,411.69c0.45,0,0.89,0,1.32,0c0.65,0,0.65,0,0.65-0.66
		c0-0.44,0-0.89,0-1.34c-0.69,0-1.32,0-1.97,0C316.36,410.35,316.36,411,316.36,411.69z M319.05,411.69c0.43,0,0.85,0,1.26,0
		c0.71,0,0.71,0,0.71-0.72c0-0.42,0-0.85,0-1.27c-0.69,0-1.32,0-1.97,0C319.05,410.36,319.05,411,319.05,411.69z M278.64,412.38
		c0,0.67,0,1.31,0,1.97c0.66,0,1.31,0,1.95,0c0-0.67,0-1.32,0-1.97C279.94,412.38,279.31,412.38,278.64,412.38z M286.74,398.93
		c0,0.67,0,1.32,0,1.96c0.66,0,1.3,0,1.95,0c0-0.66,0-1.3,0-1.96C288.04,398.93,287.4,398.93,286.74,398.93z M288.67,414.36
		c0-0.68,0-1.33,0-1.97c-0.66,0-1.3,0-1.94,0c0,0.67,0,1.31,0,1.97C287.38,414.36,288.02,414.36,288.67,414.36z M297.51,412.39
		c0,0.67,0,1.31,0,1.97c0.66,0,1.29,0,1.94,0c0-0.67,0-1.31,0-1.97C298.79,412.39,298.15,412.39,297.51,412.39z M300.19,412.39
		c0,0.67,0,1.31,0,1.96c0.66,0,1.3,0,1.95,0c0-0.67,0-1.31,0-1.96C301.49,412.39,300.86,412.39,300.19,412.39z M302.88,414.36
		c0.67,0,1.31,0,1.95,0c0-0.67,0-1.32,0-1.97c-0.66,0-1.3,0-1.95,0C302.88,413.05,302.88,413.69,302.88,414.36z M307.53,412.4
		c-0.66,0-1.31,0-1.95,0c0,0.67,0,1.31,0,1.95c0.66,0,1.3,0,1.95,0C307.53,413.68,307.53,413.04,307.53,412.4z M308.28,412.38
		c0,0.68,0,1.33,0,1.97c0.66,0,1.3,0,1.93,0c0-0.67,0-1.32,0-1.97C309.56,412.38,308.94,412.38,308.28,412.38z M310.97,414.36
		c0.67,0,1.31,0,1.95,0c0-0.67,0-1.31,0-1.97c-0.66,0-1.3,0-1.95,0C310.97,413.05,310.97,413.69,310.97,414.36z M315.62,412.39
		c-0.67,0-1.31,0-1.95,0c0,0.67,0,1.31,0,1.97c0.66,0,1.3,0,1.95,0C315.62,413.7,315.62,413.06,315.62,412.39z M318.3,414.37
		c0-0.68,0-1.33,0-1.97c-0.67,0-1.3,0-1.94,0c0,0.67,0,1.32,0,1.97C317.02,414.37,317.65,414.37,318.3,414.37z M321.01,412.39
		c-0.65,0-1.3,0-1.95,0c0,0.66,0,1.31,0,1.97c0.66,0,1.3,0,1.95,0C321.01,413.71,321.01,413.08,321.01,412.39z M280.6,417.07
		c0-0.68,0-1.32,0-2c-0.51,0-0.99,0-1.48,0c-0.56,0-0.49-0.07-0.49,0.48c0,0.26,0,0.53,0,0.79c0,0.24,0,0.48,0,0.73
		C279.31,417.07,279.94,417.07,280.6,417.07z M286.73,417.06c0.66,0,1.3,0,1.95,0c0-0.67,0-1.32,0-1.97c-0.66,0-1.29,0-1.95,0
		C286.73,415.75,286.73,416.4,286.73,417.06z M299.46,415.09c-0.67,0-1.31,0-1.95,0c0,0.67,0,1.31,0,1.97c0.66,0,1.3,0,1.95,0
		C299.46,416.39,299.46,415.75,299.46,415.09z M300.19,417.06c0.67,0,1.31,0,1.95,0c0-0.67,0-1.31,0-1.97c-0.66,0-1.31,0-1.95,0
		C300.19,415.76,300.19,416.4,300.19,417.06z M304.85,415.09c-0.67,0-1.31,0-1.96,0c0,0.67,0,1.31,0,1.97c0.66,0,1.3,0,1.96,0
		C304.85,416.39,304.85,415.75,304.85,415.09z M307.54,415.09c-0.67,0-1.31,0-1.95,0c0,0.67,0,1.32,0,1.97c0.66,0,1.3,0,1.95,0
		C307.54,416.4,307.54,415.76,307.54,415.09z M310.23,417.06c0-0.67,0-1.31,0-1.97c-0.66,0-1.31,0-1.94,0c0,0.67,0,1.32,0,1.97
		C308.94,417.06,309.58,417.06,310.23,417.06z M310.97,415.08c0,0.67,0,1.32,0,1.96c0.04,0.02,0.07,0.03,0.1,0.03
		c0.41,0,0.81,0.01,1.22,0.01c0.65,0,0.65,0,0.65-0.66c0-0.44,0-0.89,0-1.34C312.26,415.08,311.63,415.08,310.97,415.08z
		 M313.66,415.08c0,0.68,0,1.32,0,2c0.57,0,1.11-0.01,1.66,0.01c0.27,0.01,0.33-0.09,0.32-0.33c-0.02-0.31,0-0.63,0-0.95
		c0-0.24,0-0.48,0-0.73C314.95,415.08,314.32,415.08,313.66,415.08z M316.36,417.08c0.45,0,0.89,0,1.32,0c0.65,0,0.65,0,0.65-0.66
		c0-0.44,0-0.89,0-1.34c-0.69,0-1.32,0-1.97,0C316.36,415.75,316.36,416.4,316.36,417.08z M319.04,417.08c0.62,0,1.21,0,1.8-0.01
		c0.06,0,0.17-0.09,0.17-0.15c0.01-0.61,0.01-1.22,0.01-1.84c-0.68,0-1.32,0-1.98,0C319.04,415.76,319.04,416.39,319.04,417.08z
		 M285.98,414.36c0-0.67,0-1.31,0-1.97c-0.66,0-1.29,0-1.95,0c0,0.66,0,1.31,0,1.97C284.69,414.36,285.33,414.36,285.98,414.36z
		 M278.63,417.78c0,0.5,0,0.97,0,1.45c0.01,0.63-0.09,0.54,0.55,0.55c0.47,0,0.95,0,1.42,0c0-0.7,0-1.34,0-2
		C279.93,417.78,279.3,417.78,278.63,417.78z M288.67,419.76c0-0.67,0-1.32,0-1.97c-0.66,0-1.3,0-1.94,0c0,0.67,0,1.31,0,1.97
		C287.39,419.76,288.03,419.76,288.67,419.76z M297.51,417.78c0,0.67,0,1.32,0,1.98c0.66,0,1.29,0,1.95,0c0-0.67,0-1.31,0-1.98
		C298.8,417.78,298.17,417.78,297.51,417.78z M302.15,417.79c-0.67,0-1.31,0-1.95,0c0,0.67,0,1.31,0,1.97c0.66,0,1.29,0,1.95,0
		C302.15,419.1,302.15,418.45,302.15,417.79z M304.84,419.76c0-0.67,0-1.31,0-1.97c-0.66,0-1.3,0-1.95,0c0,0.67,0,1.32,0,1.97
		C303.55,419.76,304.19,419.76,304.84,419.76z M307.53,419.76c0-0.67,0-1.31,0-1.97c-0.66,0-1.3,0-1.95,0c0,0.67,0,1.32,0,1.97
		C306.25,419.76,306.88,419.76,307.53,419.76z M308.28,419.74c0.66,0,1.31,0,1.95,0c0-0.68,0-1.31,0-1.96c-0.66,0-1.29,0-1.95,0
		C308.28,418.45,308.28,419.09,308.28,419.74z M310.97,419.78c0.62,0,1.22,0.01,1.82-0.01c0.05,0,0.14-0.13,0.15-0.2
		c0.02-0.3,0.01-0.61,0.01-0.92c0-0.29,0-0.58,0-0.87c-0.69,0-1.33,0-1.98,0C310.97,418.45,310.97,419.09,310.97,419.78z
		 M313.66,417.78c0,0.67,0,1.32,0,2c0.41,0,0.81,0,1.2,0c0.77,0,0.77,0,0.77-0.78c0-0.4,0-0.8,0-1.22
		C314.95,417.78,314.33,417.78,313.66,417.78z M316.36,417.78c0,0.68,0,1.32,0,1.98c0.66,0,1.29,0,1.95,0c0-0.67,0-1.31,0-1.98
		C317.65,417.78,317.02,417.78,316.36,417.78z M319.04,419.78c0.63,0,1.23,0,1.82-0.01c0.05,0,0.15-0.09,0.15-0.14
		c0.01-0.61,0.01-1.22,0.01-1.84c-0.68,0-1.32,0-1.98,0C319.04,418.45,319.04,419.09,319.04,419.78z M286.73,398.19
		c0.68,0,1.31,0,1.96,0c0-0.66,0-1.3,0-1.96c-0.66,0-1.3,0-1.96,0C286.73,396.9,286.73,397.54,286.73,398.19z M291.38,396.23
		c-0.67,0-1.31,0-1.95,0c0,0.67,0,1.31,0,1.96c0.66,0,1.3,0,1.95,0C291.38,397.54,291.38,396.9,291.38,396.23z M294.06,398.2
		c0-0.67,0-1.32,0-1.97c-0.66,0-1.3,0-1.94,0c0,0.67,0,1.31,0,1.97C292.77,398.2,293.4,398.2,294.06,398.2z M296.76,396.23
		c-0.66,0-1.3,0-1.95,0c0,0.67,0,1.32,0,1.96c0.66,0,1.3,0,1.95,0C296.76,397.54,296.76,396.91,296.76,396.23z M299.45,396.23
		c-0.66,0-1.3,0-1.95,0c0,0.67,0,1.31,0,1.97c0.66,0,1.29,0,1.95,0C299.45,397.54,299.45,396.9,299.45,396.23z M318.96,433.39
		c0-0.68,0-1.33,0-2.01c-0.62,0-1.22-0.01-1.82,0.01c-0.05,0-0.15,0.13-0.15,0.2c-0.01,0.53-0.01,1.06,0,1.59
		c0,0.07,0.1,0.19,0.16,0.19C317.75,433.39,318.35,433.39,318.96,433.39z M302.15,396.23c-0.66,0-1.3,0-1.95,0c0,0.67,0,1.31,0,1.97
		c0.66,0,1.29,0,1.95,0C302.15,397.54,302.15,396.9,302.15,396.23z M304.84,398.2c0-0.66,0-1.31,0-1.97c-0.66,0-1.29,0-1.95,0
		c0,0.66,0,1.31,0,1.97C303.55,398.2,304.18,398.2,304.84,398.2z M305.58,398.19c0.67,0,1.31,0,1.95,0c0-0.67,0-1.31,0-1.96
		c-0.66,0-1.3,0-1.95,0C305.58,396.89,305.58,397.53,305.58,398.19z M310.23,396.23c-0.66,0-1.31,0-1.95,0c0,0.67,0,1.32,0,1.96
		c0.66,0,1.3,0,1.95,0C310.23,397.53,310.23,396.89,310.23,396.23z M283.29,400.89c0-0.66,0-1.31,0-1.97c-0.66,0-1.29,0-1.95,0
		c0,0.66,0,1.31,0,1.97C282,400.89,282.64,400.89,283.29,400.89z M285.99,400.9c0-0.67,0-1.31,0-1.97c-0.66,0-1.3,0-1.95,0
		c0,0.67,0,1.31,0,1.97C284.7,400.9,285.33,400.9,285.99,400.9z M292.12,398.93c0,0.67,0,1.31,0,1.96c0.66,0,1.3,0,1.94,0
		c0-0.67,0-1.31,0-1.96C293.4,398.93,292.76,398.93,292.12,398.93z M296.76,398.93c-0.66,0-1.3,0-1.95,0c0,0.67,0,1.32,0,1.96
		c0.66,0,1.3,0,1.95,0C296.76,400.23,296.76,399.59,296.76,398.93z M297.51,398.93c0,0.67,0,1.32,0,1.96c0.66,0,1.3,0,1.95,0
		c0-0.66,0-1.3,0-1.96C298.81,398.93,298.17,398.93,297.51,398.93z M300.2,398.93c0,0.67,0,1.31,0,1.97c0.66,0,1.3,0,1.94,0
		c0-0.67,0-1.31,0-1.97C301.48,398.93,300.84,398.93,300.2,398.93z M318.97,434.08c-0.63,0-1.23-0.01-1.82,0.01
		c-0.06,0-0.15,0.14-0.15,0.23c-0.02,0.32-0.01,0.63-0.01,0.95c0,0.82,0,0.82,0.83,0.82c0.38,0,0.77,0,1.16,0
		C318.97,435.4,318.97,434.77,318.97,434.08z M305.58,406.99c0,0.68,0,1.32,0,2c0.4,0,0.79,0,1.17,0c0.8,0,0.8,0,0.8-0.79
		c0-0.4,0-0.8,0-1.22C306.87,406.99,306.24,406.99,305.58,406.99z M304.85,398.94c-0.67,0-1.31,0-1.96,0c0,0.67,0,1.31,0,1.95
		c0.66,0,1.31,0,1.96,0C304.85,400.23,304.85,399.6,304.85,398.94z M307.53,400.89c0-0.66,0-1.31,0-1.97c-0.66,0-1.3,0-1.94,0
		c0,0.67,0,1.31,0,1.97C306.25,400.89,306.88,400.89,307.53,400.89z M308.29,398.93c0,0.68,0,1.32,0,1.96c0.66,0,1.3,0,1.94,0
		c0-0.66,0-1.3,0-1.96C309.58,398.93,308.94,398.93,308.29,398.93z M312.92,398.93c-0.67,0-1.31,0-1.95,0c0,0.67,0,1.31,0,1.96
		c0.66,0,1.3,0,1.95,0C312.92,400.23,312.92,399.59,312.92,398.93z M280.6,403.59c0-0.69,0-1.32,0-1.96c-0.66,0-1.3,0-1.97,0
		c0,0.61,0,1.2,0.01,1.79c0,0.06,0.1,0.16,0.15,0.16C279.39,403.59,279.98,403.59,280.6,403.59z M283.3,403.59c0-0.69,0-1.32,0-1.96
		c-0.66,0-1.3,0-1.97,0c0,0.61,0,1.2,0.01,1.79c0,0.06,0.1,0.16,0.15,0.16C282.08,403.59,282.68,403.59,283.3,403.59z
		 M285.98,403.57c0-0.66,0-1.29,0-1.94c-0.66,0-1.3,0-1.96,0c0,0.66,0,1.28,0,1.94C284.69,403.57,285.33,403.57,285.98,403.57z
		 M288.67,403.57c0-0.67,0-1.3,0-1.95c-0.66,0-1.3,0-1.95,0c0,0.66,0,1.29,0,1.95C287.38,403.57,288.02,403.57,288.67,403.57z
		 M292.12,401.62c0,0.66,0,1.3,0,1.95c0.66,0,1.29,0,1.95,0c0-0.66,0-1.29,0-1.95C293.42,401.62,292.78,401.62,292.12,401.62z
		 M297.5,403.57c0.67,0,1.3,0,1.96,0c0-0.66,0-1.29,0-1.94c-0.66,0-1.3,0-1.96,0C297.5,402.28,297.5,402.91,297.5,403.57z
		 M302.14,403.57c0-0.67,0-1.3,0-1.95c-0.66,0-1.3,0-1.95,0c0,0.66,0,1.29,0,1.95C300.85,403.57,301.48,403.57,302.14,403.57z
		 M302.89,401.62c0,0.66,0,1.29,0,1.97c0.35,0,0.68,0,1.02,0c0.3-0.01,0.71,0.09,0.88-0.07c0.16-0.15,0.07-0.57,0.07-0.87
		c0.01-0.34,0-0.68,0-1.03C304.17,401.62,303.54,401.62,302.89,401.62z M305.58,401.62c0,0.66,0,1.29,0,1.94c0.66,0,1.3,0,1.95,0
		c0-0.66,0-1.3,0-1.94C306.87,401.62,306.23,401.62,305.58,401.62z M310.22,403.57c0-0.67,0-1.3,0-1.95c-0.66,0-1.3,0-1.95,0
		c0,0.66,0,1.29,0,1.95C308.93,403.57,309.56,403.57,310.22,403.57z M310.97,401.62c0,0.67,0,1.3,0,1.95c0.66,0,1.3,0,1.95,0
		c0-0.66,0-1.29,0-1.95C312.26,401.62,311.62,401.62,310.97,401.62z M313.66,403.56c0.67,0,1.31,0,1.96,0c0-0.66,0-1.29,0-1.93
		c-0.66,0-1.31,0-1.96,0C313.66,402.28,313.66,402.91,313.66,403.56z M278.65,404.29c0,0.68,0,1.32,0,1.97c0.66,0,1.3,0,1.94,0
		c0-0.67,0-1.32,0-1.97C279.94,404.29,279.31,404.29,278.65,404.29z M281.35,404.29c0,0.67,0,1.32,0,1.97c0.66,0,1.3,0,1.94,0
		c0-0.67,0-1.31,0-1.97C282.64,404.29,282.01,404.29,281.35,404.29z M285.98,406.27c0-0.68,0-1.32,0-1.96c-0.66,0-1.3,0-1.95,0
		c0,0.66,0,1.3,0,1.96C284.68,406.27,285.32,406.27,285.98,406.27z M302.89,395.5c0.66,0,1.3,0,1.97,0c0-0.55,0-1.08-0.01-1.61
		c0-0.06-0.07-0.16-0.12-0.17c-0.6-0.15-1.21-0.29-1.84-0.44C302.89,394.05,302.89,394.76,302.89,395.5z M285.98,398.2
		c0-0.67,0-1.31,0-1.98c-0.43,0-0.83-0.01-1.24,0c-0.26,0.01-0.72,0.32-0.72,0.47c-0.01,0.5,0,0.99,0,1.51
		C284.68,398.2,285.32,398.2,285.98,398.2z M316.36,401.61c0,0.68,0,1.32,0,1.96c0.66,0,1.3,0,1.96,0c0-0.45,0.07-0.89-0.03-1.3
		c-0.06-0.26-0.36-0.57-0.61-0.64C317.28,401.53,316.82,401.61,316.36,401.61z M272.53,417.76c-0.39,0-0.74,0-1.09,0
		c-0.72,0-0.73,0-0.78,0.72c-0.03,0.42,0,0.84,0,1.27c0.63,0,1.25,0,1.87,0C272.53,419.09,272.53,418.45,272.53,417.76z
		 M313.66,400.89c0.67,0,1.31,0,1.98,0c0-0.37,0-0.71,0-1.06c0-0.34-0.42-0.88-0.75-0.91c-0.4-0.04-0.81-0.01-1.22-0.01
		C313.66,399.59,313.66,400.23,313.66,400.89z M275.2,408.97c0-0.68,0-1.33,0-1.99c-0.39,0-0.76,0-1.12,0
		c-0.06,0-0.16,0.03-0.18,0.08c-0.32,0.62-0.63,1.24-0.97,1.91C273.73,408.97,274.46,408.97,275.2,408.97z M272.52,415.08
		c-0.5,0-0.97,0-1.47,0c-0.1,0.66-0.19,1.31-0.28,1.97c0.62,0,1.19,0,1.76,0C272.52,416.39,272.52,415.75,272.52,415.08z
		 M289.4,395.5c0.69,0,1.32,0,1.96,0c0-0.64,0-1.26,0-1.93c-0.63,0.18-1.22,0.35-1.81,0.53c-0.06,0.02-0.14,0.12-0.14,0.19
		C289.4,394.69,289.4,395.08,289.4,395.5z M323.63,411.66c0.01-0.05,0.02-0.08,0.01-0.11c-0.21-0.58-0.42-1.17-0.63-1.75
		c-0.02-0.06-0.09-0.13-0.15-0.13c-0.37-0.01-0.74-0.01-1.12-0.01c0,0.69,0,1.33,0,1.99C322.38,411.66,323,411.66,323.63,411.66z
		 M303.51,446.69c0.72-0.18,1.38-0.35,2-0.51c0-0.46,0-0.87,0-1.31c-0.64,0-1.24,0-1.83,0.01c-0.06,0-0.16,0.1-0.16,0.16
		C303.51,445.56,303.51,446.09,303.51,446.69z M321.05,406.27c-0.04-0.19-0.03-0.37-0.1-0.51c-0.27-0.45-0.56-0.87-0.85-1.3
		c-0.05-0.08-0.15-0.16-0.23-0.17c-0.27-0.02-0.54-0.01-0.81-0.01c0,0.69,0,1.33,0,1.99C319.72,406.27,320.35,406.27,321.05,406.27z
		 M314.29,441.63c0.03,0.01,0.05,0.03,0.08,0.04c0.69-0.59,1.39-1.18,2.06-1.75c-0.08-0.18-0.13-0.3-0.19-0.45
		c-0.41,0-0.84,0-1.27,0c-0.68,0-0.68,0-0.68,0.67C314.29,440.64,314.29,441.13,314.29,441.63z M317.45,438.91
		c0.57-0.66,1.15-1.33,1.76-2.04c-0.15-0.05-0.22-0.1-0.29-0.1c-0.58-0.01-1.16-0.01-1.74,0c-0.06,0-0.17,0.09-0.17,0.15
		c-0.01,0.61-0.01,1.22-0.01,1.81C317.15,438.8,317.27,438.84,317.45,438.91z M310.98,396.19c0,0.73,0,1.37,0,2c0.66,0,1.3,0,1.97,0
		c0-0.15,0.01-0.28,0-0.41c-0.02-0.14-0.01-0.36-0.1-0.42C312.25,396.97,311.63,396.6,310.98,396.19z M305.59,393.93
		c0,0.56,0,1.06,0,1.57c0.66,0,1.3,0,1.96,0c0-0.27,0.01-0.51,0-0.75c0-0.06-0.05-0.14-0.1-0.16
		C306.84,394.36,306.22,394.15,305.59,393.93z M272.52,412.37c-0.21,0-0.38,0.02-0.55,0c-0.22-0.03-0.31,0.08-0.35,0.28
		c-0.11,0.46-0.23,0.91-0.34,1.36c-0.03,0.11-0.03,0.23-0.05,0.35c0.45,0,0.87,0,1.29,0C272.52,413.69,272.52,413.06,272.52,412.37z
		 M280.59,400.9c0-0.65,0-1.26,0-1.97c-0.67,0.62-1.28,1.18-1.89,1.75c-0.05,0.04-0.05,0.13-0.08,0.22
		C279.31,400.9,279.94,400.9,280.59,400.9z M319.68,436.09c0.03,0.01,0.06,0.02,0.1,0.03c0.44-0.66,0.87-1.32,1.35-2.04
		c-0.49,0-0.88-0.01-1.26,0.01c-0.06,0-0.18,0.11-0.18,0.17C319.68,434.86,319.68,435.48,319.68,436.09z M306.21,445.97
		c0.73-0.27,1.4-0.52,2.07-0.77c0.01-0.03,0.02-0.07,0.03-0.1c-0.1-0.08-0.2-0.22-0.3-0.22c-0.53-0.02-1.06-0.02-1.59,0
		c-0.07,0-0.2,0.09-0.2,0.15C306.2,445.31,306.21,445.61,306.21,445.97z M311.6,443.55c0.71-0.46,1.34-0.88,1.97-1.29
		c-0.01-0.03-0.02-0.06-0.03-0.09c-0.6,0-1.19,0-1.79,0.01c-0.05,0-0.14,0.1-0.14,0.15C311.59,442.7,311.6,443.08,311.6,443.55z
		 M288.68,394.37c-0.62,0.25-1.19,0.49-1.76,0.71c-0.21,0.08-0.26,0.21-0.18,0.41c0.64,0,1.28,0,1.94,0
		C288.68,395.13,288.68,394.79,288.68,394.37z M283.3,397c-0.59,0.41-1.12,0.78-1.72,1.19c0.64,0,1.18,0,1.72,0
		C283.3,397.8,283.3,397.44,283.3,397z M321.8,407.21c-0.02,0.01-0.04,0.01-0.06,0.02c0,0.57,0,1.15,0,1.73c0.3,0,0.58,0,0.91,0
		C322.36,408.35,322.08,407.78,321.8,407.21z M275.22,404.96c-0.02-0.01-0.04-0.02-0.07-0.03c-0.27,0.43-0.53,0.86-0.82,1.33
		c0.34,0,0.61,0,0.89,0C275.22,405.81,275.22,405.39,275.22,404.96z M272.52,411.67c0-0.54,0-1.04,0-1.54
		c-0.02,0-0.04-0.01-0.06-0.01c-0.18,0.51-0.36,1.01-0.54,1.55C272.16,411.67,272.33,411.67,272.52,411.67z M309.47,395.5
		c0.01-0.02,0.01-0.04,0.02-0.06c-0.39-0.18-0.79-0.35-1.2-0.54c0,0.23,0,0.41,0,0.6C308.69,395.5,309.08,395.5,309.47,395.5z
		 M316.36,400.12c0,0.32,0,0.54,0,0.78c0.24,0,0.47,0,0.66,0C316.82,400.66,316.61,400.42,316.36,400.12z M319.04,403.56
		c0.12,0,0.23,0,0.41,0c-0.14-0.18-0.25-0.31-0.41-0.51C319.04,403.27,319.04,403.39,319.04,403.56z"/>
	<path fill="#B12126" d="M302.56,421.7c0.1-0.61,0.11-0.62,0.7-0.62c2.53,0,5.06,0,7.59,0c0.64,0,0.64,0,0.79,0.62
		c0.11,0,0.23,0,0.36,0c3.39,0,6.77,0,10.16,0c0.49,0,0.57,0.08,0.57,0.57c0,2.33,0,4.66,0,6.98c0,0.5-0.08,0.57-0.59,0.57
		c-3.38,0-6.75,0-10.13,0c-0.13,0-0.26,0-0.41,0c-0.01,0.11-0.02,0.2-0.03,0.29c-0.02,0.2-0.14,0.31-0.33,0.33
		c-0.09,0.01-0.18,0-0.28,0c-2.57,0-5.14,0-7.71,0c-0.6,0-0.61-0.01-0.7-0.62c-0.13,0-0.27,0-0.41,0c-9.64,0-19.28,0-28.91,0
		c-0.58,0-0.63-0.05-0.63-0.63c0-0.53,0.03-1.06-0.01-1.59c-0.06-0.82,0.05-1.63,0-2.45c-0.01-0.2-0.07-0.4-0.07-0.6
		c0-0.2,0.07-0.39,0.07-0.59c0.01-0.57,0-1.14,0-1.72c0-0.47,0.08-0.55,0.55-0.55c9.67,0,19.34,0,29,0
		C302.29,421.7,302.43,421.7,302.56,421.7z M302.57,429.1c0-0.63,0-1.22,0-1.84c-0.2,0-0.37,0.02-0.54,0
		c-0.44-0.07-0.72,0.09-0.89,0.51c-0.06,0.14-0.25,0.32-0.38,0.31c-0.13,0-0.29-0.19-0.38-0.33c-0.18-0.29-0.32-0.6-0.5-0.95
		c-0.21,0.39-0.37,0.72-0.57,1.03c-0.08,0.12-0.24,0.25-0.37,0.26c-0.11,0-0.26-0.14-0.33-0.26c-0.19-0.31-0.34-0.65-0.53-1.01
		c-0.07,0.12-0.13,0.21-0.17,0.3c-0.13,0.25-0.26,0.51-0.4,0.76c-0.18,0.32-0.47,0.32-0.66,0.01c-0.09-0.15-0.17-0.3-0.25-0.46
		c-0.1-0.19-0.21-0.38-0.35-0.64c-0.13,0.46-0.4,0.49-0.72,0.49c-2.48-0.01-4.96,0.01-7.43-0.02c-0.46,0-0.74,0.1-0.91,0.54
		c-0.05,0.13-0.24,0.3-0.36,0.3c-0.13,0-0.29-0.16-0.37-0.29c-0.19-0.3-0.34-0.61-0.53-0.96c-0.2,0.37-0.35,0.69-0.55,0.99
		c-0.08,0.12-0.23,0.27-0.36,0.27c-0.12,0-0.28-0.15-0.36-0.27c-0.19-0.3-0.35-0.62-0.55-0.99c-0.19,0.36-0.35,0.68-0.54,0.97
		c-0.08,0.13-0.25,0.28-0.38,0.28c-0.11,0.01-0.27-0.16-0.35-0.28c-0.19-0.3-0.34-0.62-0.55-1c-0.13,0.46-0.43,0.46-0.75,0.46
		c-2.62-0.01-5.24,0-7.86,0c-0.12,0-0.24,0-0.38,0c0,0.63,0,1.23,0,1.84C283.06,429.1,292.81,429.1,302.57,429.1z M280.96,424.56
		c0.13-0.48,0.46-0.46,0.8-0.46c2.56,0,5.12,0,7.68,0.01c0.24,0,0.39-0.06,0.47-0.29c0.03-0.08,0.06-0.16,0.12-0.21
		c0.12-0.12,0.26-0.31,0.39-0.31c0.13,0,0.3,0.18,0.38,0.31c0.18,0.28,0.32,0.6,0.5,0.95c0.21-0.38,0.36-0.7,0.56-1
		c0.08-0.12,0.24-0.28,0.35-0.27c0.13,0.01,0.29,0.15,0.37,0.28c0.19,0.3,0.33,0.62,0.52,0.99c0.19-0.37,0.33-0.68,0.52-0.97
		c0.08-0.13,0.24-0.31,0.36-0.3c0.14,0.01,0.3,0.16,0.39,0.3c0.19,0.29,0.34,0.61,0.56,1.01c0.12-0.52,0.44-0.51,0.77-0.51
		c2.16,0.01,4.32,0,6.48,0c0.13,0,0.25,0,0.37,0c0-0.6,0-1.14,0-1.68c-9.77,0-19.51,0-29.3,0c0,0.49,0.01,0.95,0,1.42
		c0,0.2,0.06,0.27,0.26,0.26c0.54-0.01,1.08-0.04,1.62,0.01c0.47,0.04,0.77-0.1,0.93-0.55c0.05-0.12,0.23-0.26,0.35-0.27
		c0.12,0,0.28,0.14,0.36,0.26c0.19,0.3,0.35,0.63,0.55,0.99c0.19-0.35,0.33-0.65,0.52-0.93c0.09-0.14,0.26-0.31,0.39-0.31
		c0.13,0,0.29,0.18,0.38,0.32c0.19,0.28,0.33,0.59,0.52,0.93c0.21-0.39,0.38-0.71,0.56-1.03c0.19-0.33,0.49-0.33,0.68,0
		C280.58,423.83,280.74,424.16,280.96,424.56z M286.83,427.05c0.13-0.45,0.4-0.48,0.72-0.48c2.47,0.01,4.94-0.01,7.4,0.02
		c0.48,0.01,0.78-0.11,0.96-0.57c0.05-0.12,0.23-0.27,0.35-0.27c0.12,0,0.28,0.14,0.36,0.26c0.19,0.3,0.35,0.63,0.55,0.99
		c0.2-0.37,0.35-0.69,0.55-0.99c0.08-0.12,0.24-0.26,0.36-0.26c0.12,0,0.28,0.14,0.36,0.27c0.19,0.3,0.35,0.61,0.54,0.98
		c0.18-0.33,0.32-0.63,0.5-0.89c0.1-0.15,0.24-0.31,0.4-0.36c0.25-0.07,0.33,0.19,0.42,0.36c0.16,0.28,0.31,0.56,0.51,0.94
		c0.1-0.51,0.42-0.49,0.74-0.48c0.34,0.01,0.69,0,1.04,0c0-0.61,0-1.17,0-1.77c-0.14,0-0.26,0-0.38,0c-2.02,0-4.04,0.01-6.06-0.01
		c-0.4,0-0.67,0.08-0.82,0.48c-0.06,0.15-0.26,0.35-0.39,0.35c-0.13,0-0.3-0.2-0.4-0.34c-0.18-0.27-0.32-0.57-0.5-0.91
		c-0.2,0.37-0.35,0.69-0.54,0.98c-0.08,0.12-0.24,0.29-0.35,0.28c-0.13-0.01-0.29-0.16-0.38-0.29c-0.19-0.3-0.35-0.62-0.54-0.97
		c-0.17,0.31-0.3,0.59-0.47,0.84c-0.11,0.16-0.26,0.38-0.43,0.41c-0.26,0.06-0.34-0.23-0.45-0.42c-0.15-0.26-0.29-0.52-0.48-0.87
		c-0.11,0.49-0.42,0.48-0.74,0.48c-2.49-0.01-4.98,0.01-7.46-0.02c-0.44,0-0.7,0.1-0.86,0.52c-0.06,0.14-0.25,0.32-0.38,0.32
		c-0.13,0-0.29-0.19-0.38-0.33c-0.18-0.29-0.32-0.6-0.51-0.96c-0.2,0.39-0.35,0.71-0.54,1.02c-0.08,0.12-0.23,0.27-0.35,0.27
		c-0.12,0-0.28-0.15-0.36-0.27c-0.2-0.31-0.36-0.64-0.56-1.01c-0.19,0.37-0.34,0.7-0.53,1.01c-0.08,0.12-0.23,0.27-0.35,0.27
		c-0.12,0-0.28-0.15-0.36-0.27c-0.2-0.3-0.36-0.63-0.57-1.01c-0.14,0.38-0.37,0.51-0.71,0.46c-0.16-0.02-0.33,0-0.49,0
		c-0.64,0-1.28,0-1.97,0c0,0.48,0,0.92,0,1.37c0,0.4,0,0.4,0.4,0.4c2.46,0,4.92-0.01,7.37,0.01c0.44,0,0.72-0.1,0.89-0.52
		c0.06-0.14,0.26-0.31,0.38-0.3c0.13,0,0.29,0.18,0.38,0.32c0.18,0.28,0.32,0.59,0.51,0.94c0.2-0.38,0.36-0.7,0.55-1
		c0.08-0.12,0.24-0.28,0.35-0.27c0.13,0.01,0.29,0.15,0.38,0.28c0.19,0.3,0.33,0.62,0.53,0.99c0.2-0.38,0.35-0.7,0.53-1
		c0.08-0.12,0.23-0.27,0.35-0.27c0.12,0,0.28,0.14,0.36,0.26C286.45,426.31,286.61,426.64,286.83,427.05z M315.18,426.83
		c-0.2,0.37-0.35,0.68-0.54,0.97c-0.08,0.12-0.23,0.29-0.35,0.28c-0.13-0.01-0.29-0.15-0.38-0.28c-0.19-0.3-0.35-0.62-0.56-1.01
		c-0.1,0.5-0.43,0.48-0.76,0.47c-0.32-0.01-0.64,0-0.98,0c0,0.64,0,1.24,0,1.83c3.48,0,6.94,0,10.4,0c0-0.62,0-1.2,0-1.83
		c-0.13,0-0.24,0-0.35,0c-0.84,0-1.67,0.03-2.51-0.01c-0.46-0.02-0.74,0.09-0.91,0.54c-0.05,0.13-0.24,0.3-0.36,0.3
		c-0.13,0-0.29-0.16-0.37-0.29c-0.19-0.29-0.35-0.61-0.54-0.96c-0.2,0.36-0.35,0.68-0.54,0.98c-0.08,0.12-0.23,0.27-0.36,0.27
		c-0.12,0-0.28-0.15-0.36-0.27C315.54,427.52,315.38,427.2,315.18,426.83z M322.02,422.43c-3.48,0-6.94,0-10.41,0
		c0,0.56,0,1.1,0,1.68c0.13,0,0.24,0,0.35,0c0.76,0,1.53-0.03,2.29,0.01c0.5,0.03,0.87-0.06,1.02-0.59
		c0.01-0.03,0.03-0.05,0.04-0.08c0.17-0.24,0.45-0.24,0.6,0.01c0.15,0.24,0.28,0.5,0.41,0.75c0.05,0.1,0.11,0.19,0.19,0.33
		c0.17-0.31,0.3-0.56,0.44-0.81c0.11-0.19,0.16-0.44,0.45-0.45c0.29-0.01,0.35,0.25,0.45,0.43c0.15,0.26,0.29,0.53,0.46,0.83
		c0.18-0.33,0.32-0.63,0.5-0.9c0.1-0.15,0.26-0.34,0.4-0.34c0.14,0,0.31,0.19,0.4,0.33c0.18,0.27,0.32,0.57,0.52,0.92
		c0.14-0.44,0.42-0.47,0.73-0.46c0.37,0.01,0.75,0,1.14,0C322.02,423.53,322.02,422.99,322.02,422.43z M319.24,424.34
		c-0.19,0.36-0.33,0.67-0.51,0.95c-0.09,0.14-0.25,0.33-0.38,0.33c-0.13,0-0.3-0.17-0.39-0.31c-0.19-0.29-0.34-0.61-0.53-0.97
		c-0.2,0.38-0.35,0.7-0.53,1.01c-0.08,0.12-0.23,0.28-0.35,0.28c-0.12,0-0.28-0.14-0.36-0.27c-0.2-0.31-0.36-0.64-0.58-1.04
		c-0.14,0.59-0.56,0.48-0.92,0.49c-0.77,0-1.55,0-2.32,0c-0.24,0-0.48,0-0.77,0c0,0.48,0,0.93,0,1.37c0,0.4,0,0.38,0.4,0.4
		c0.44,0.02,0.85,0.05,1.02-0.51c0.04-0.14,0.25-0.31,0.38-0.31c0.13,0,0.29,0.18,0.38,0.32c0.18,0.29,0.32,0.6,0.51,0.95
		c0.2-0.38,0.35-0.71,0.54-1.01c0.08-0.12,0.23-0.26,0.35-0.26c0.12,0,0.28,0.14,0.36,0.26c0.2,0.3,0.35,0.63,0.56,1.01
		c0.19-0.36,0.33-0.67,0.51-0.96c0.08-0.13,0.24-0.31,0.36-0.3c0.14,0.01,0.31,0.16,0.4,0.3c0.19,0.29,0.34,0.61,0.55,1
		c0.12-0.49,0.42-0.49,0.75-0.49c1,0.01,2,0,3,0c0.12,0,0.24-0.01,0.37-0.02c0-0.59,0-1.16,0-1.75c-0.2,0-0.39,0.02-0.56,0
		c-0.49-0.08-0.81,0.07-0.98,0.56c-0.04,0.12-0.23,0.27-0.35,0.27c-0.12,0-0.27-0.15-0.35-0.28
		C319.58,425.05,319.44,424.72,319.24,424.34z M306.73,429.09c0-0.62,0-1.22,0-1.82c-1.15,0-2.27,0-3.41,0c0,0.61,0,1.21,0,1.82
		C304.46,429.09,305.59,429.09,306.73,429.09z M310.89,427.28c-1.16,0-2.28,0-3.41,0c0,0.62,0,1.21,0,1.81c1.14,0,2.27,0,3.41,0
		C310.89,428.48,310.89,427.89,310.89,427.28z M303.31,426.55c1.16,0,2.29,0,3.43,0c0-0.59,0-1.15,0-1.72c-1.15,0-2.28,0-3.43,0
		C303.31,425.41,303.31,425.97,303.31,426.55z M310.89,424.82c-1.14,0-2.27,0-3.41,0c0,0.58,0,1.15,0,1.73c1.14,0,2.26,0,3.41,0
		C310.89,425.97,310.89,425.42,310.89,424.82z M306.74,422.43c-1.15,0-2.28,0-3.42,0c0,0.57,0,1.11,0,1.65c1.15,0,2.28,0,3.42,0
		C306.74,423.52,306.74,422.98,306.74,422.43z M307.48,422.42c0,0.57,0,1.11,0,1.66c1.14,0,2.27,0,3.4,0c0-0.57,0-1.11,0-1.66
		C309.74,422.42,308.62,422.42,307.48,422.42z"/>
</g>
<g>
</g>
<g>
</g>
<g>
</g>
<g>
</g>
<g>
</g>
<g>
</g>
</svg>
